<svg id="Calque_1" data-name="Calque 1" xmlns="http://www.w3.org/2000/svg" viewBox="0 0 561.26 561.26"><defs><style>.cls-1{fill:#7e4f49;}.cls-2{fill:#2a1714;}.cls-3{fill:#fff;}</style></defs><title>like</title><path class="cls-1" d="M578.26,297.64c0,5.84-.18,11.65-.54,17.4A280.38,280.38,0,0,1,297.63,578.27C142.65,578.27,17,452.62,17,297.64S142.65,17,297.63,17c131,0,241,89.76,272,211.14A281.18,281.18,0,0,1,578.26,297.64Z" transform="translate(-17 -17.01)"/><path class="cls-2" d="M578.26,297.64c0,5.84-.18,11.65-.54,17.4a280.11,280.11,0,0,1-105.6,202.39L296.5,447.18l106.59-294,166.5,75A281.18,281.18,0,0,1,578.26,297.64Z" transform="translate(-17 -17.01)"/><path class="cls-3" d="M297.37,186.08c6-5.93,11.36-12.07,17.55-17.22,17.68-14.66,38.32-21.46,61.18-20.7a92.1,92.1,0,0,1,87.59,76.93c3.07,18.15-.19,35.61-5.1,52.84-8.66,30.35-24.95,56.63-44.77,80.83-25.19,30.76-54.54,56.77-89.22,76.44-7.69,4.37-15.9,7.84-24,11.45a7.94,7.94,0,0,1-5.52.06c-22.73-8.76-42.91-21.88-61.83-37-30.6-24.48-56.67-53-76.73-86.82a192.41,192.41,0,0,1-25.15-70c-7.15-47.12,25.85-94.17,72.8-102.77,37-6.78,67.56,5,91.42,34.08.48.59,1,1.2,1.47,1.77C297.19,186.06,297.43,186.11,297.37,186.08Z" transform="translate(-17 -17.01)"/></svg>