<svg id="Calque_1" data-name="Calque 1" xmlns="http://www.w3.org/2000/svg" viewBox="0 0 408.7 176.2"><defs><style>.cls-1,.cls-8{fill:#97bfd3;}.cls-2{fill:#fff;}.cls-3{fill:#7e4e47;}.cls-4{font-size:98.96px;font-family:Cabin-SemiBold, Cabin;font-weight:600;}.cls-5{letter-spacing:-0.09em;}.cls-6{letter-spacing:-0.08em;}.cls-7{letter-spacing:-0.03em;}.cls-8{letter-spacing:0em;}</style></defs><title>logo + name</title><path d="M127.82,50h.5c33.24,0,64.6,25.31,71.11,60.52,5.48,29.68-3.33,55.12-27.32,74.2A73.94,73.94,0,0,1,125.76,201c-33.42,0-65.67-22.27-73.86-58.55A75.49,75.49,0,0,1,102,53.68c7.54-2.44,15.27-3.68,25.8-3.68m0-5h0c-10.53,0-19,1.21-27.34,3.92a79.85,79.85,0,0,0-45,36.81A81.07,81.07,0,0,0,47,143.55a78.57,78.57,0,0,0,29.32,45.76A82,82,0,0,0,125.76,206a78.76,78.76,0,0,0,49.46-17.37c12.58-10,21.43-21.89,26.3-35.33,4.79-13.21,5.74-27.91,2.83-43.69-6.81-36.83-39.5-64.61-76-64.61Z" transform="translate(-45 -45)"/><path class="cls-1" d="M128.32,50c33.24,0,64.6,25.31,71.11,60.52,5.48,29.68-3.33,55.12-27.32,74.2C128.82,219.14,64,196.13,51.9,142.45A75.49,75.49,0,0,1,102,53.68C109.68,51.2,117.54,50,128.32,50ZM106.88,171.25c8.47-.66,16.15-1.78,23.4-4.77a5.07,5.07,0,0,0,2.72-2.8c2.27-8.44,4.34-16.92,6.34-25.42a3.35,3.35,0,0,0-.89-2.63q-9.48-9.84-19.15-19.49a3.07,3.07,0,0,0-2.48-.63c-8.85,2.09-17.66,4.34-26.51,6.43a3.63,3.63,0,0,0-2.93,2.57c-2.52,6.75-3.55,13.78-4.48,20.86a8.92,8.92,0,0,0,2.53,8.07c5.45,5.33,11,10.55,16.48,15.86C103.52,170.87,105.32,171.59,106.88,171.25Zm67.38-68.17c-.43-1.72-.38-3.81-1.38-5.11a102.49,102.49,0,0,0-19.37-19.16,5.06,5.06,0,0,0-3-1,68.53,68.53,0,0,0-22.43,4.84,3.48,3.48,0,0,0-2.39,3c-1.31,8.11-2.74,16.21-4,24.33a3.88,3.88,0,0,0,.91,2.88c6.43,6.65,12.94,13.22,19.48,19.78a2.47,2.47,0,0,0,1.85.72c7.74-1.9,15.47-3.85,23.16-5.92a3.74,3.74,0,0,0,2.08-2A76.54,76.54,0,0,0,174.26,103.08ZM74,98.7c-5,1.62-9.72,3.06-14.38,4.79a4.73,4.73,0,0,0-2.42,2.76,67.93,67.93,0,0,0-2,29.22,24.91,24.91,0,0,0,2.05,7.78c1.29,2.51,3.41,4.63,5.33,6.78a3.2,3.2,0,0,0,2.43.85c3.48-.42,6.92-1.15,10.39-1.57,2.08-.25,2.82-1.09,3-3.19a82.6,82.6,0,0,1,5.06-24.07,2.88,2.88,0,0,0-.11-2c-2.77-6.42-5.6-12.8-8.41-19.2C74.68,100.24,74.42,99.64,74,98.7Zm83.81,81.69c-.66-.52-.76-.67-.89-.7a73.2,73.2,0,0,1-22.17-9.31,2.06,2.06,0,0,0-1.63-.14c-8.24,3.4-16.91,4.83-25.76,5.35a1.86,1.86,0,0,0-2.06,1.78c-.61,3.47-1.33,6.93-2.07,10.38a1.85,1.85,0,0,0,1.16,2.45c2.16,1,4.22,2.23,6.36,3.27,1.79.87,3.58,2.09,5.48,2.35A68.74,68.74,0,0,0,150.19,192a4.28,4.28,0,0,0,2.18-1.36C154.29,187.29,156,183.82,157.83,180.39ZM125.48,53.93c-5.44.8-11,1.33-16.33,2.47-8.34,1.76-9.1,3-9,11.46,0,.29,0,.58,0,.88,0,1.59.62,2.39,2.27,3,6.89,2.39,13.7,5,20.55,7.5a2.65,2.65,0,0,0,1.86,0,69.83,69.83,0,0,1,24.48-5.8c1.45-.1,2.25-.52,2.24-2,0-3.36,0-6.72,0-10.09,0-1.5-.74-2.3-2.24-2.83A89.7,89.7,0,0,0,125.48,53.93Zm57.69,96.23c2.8-.81,5.82-1.6,8.77-2.6a3.06,3.06,0,0,0,1.57-1.85,70.71,70.71,0,0,0-1.36-44.83,2,2,0,0,0-2.47-1.6c-3,.34-5.93.67-8.89,1-1.66.17-2.38.79-2.4,2.63a57.28,57.28,0,0,1-3.46,19.68,11,11,0,0,0,.73,10C178.59,138.13,180.66,144.14,183.17,150.16ZM95.73,60.91C79.2,68.85,67.44,81.07,60,98c4.68-1.52,8.9-2.86,13.1-4.29.49-.16.89-.74,1.2-1.21A79.91,79.91,0,0,1,94.52,71.82a2.67,2.67,0,0,0,1.16-1.65C95.8,67.18,95.73,64.19,95.73,60.91Zm63.82,126.9c14.76-8.4,25-19.94,31.21-35.1a66.11,66.11,0,0,0-8,2.67c-.42.16-.74.7-1,1.13-4.66,8.25-10.9,15.21-17.91,21.56a5.47,5.47,0,0,0-1.49,1.85C161.44,182.3,160.64,184.74,159.55,187.81Z" transform="translate(-45 -45)"/><path class="cls-2" d="M106.88,171.25c-1.56.34-3.36-.38-5-1.95-5.47-5.31-11-10.53-16.48-15.86a8.92,8.92,0,0,1-2.53-8.07c.93-7.08,2-14.11,4.48-20.86a3.63,3.63,0,0,1,2.93-2.57c8.85-2.09,17.66-4.34,26.51-6.43a3.07,3.07,0,0,1,2.48.63q9.67,9.64,19.15,19.49a3.35,3.35,0,0,1,.89,2.63c-2,8.5-4.07,17-6.34,25.42a5.07,5.07,0,0,1-2.72,2.8C123,169.47,115.35,170.59,106.88,171.25Z" transform="translate(-45 -45)"/><path class="cls-2" d="M174.26,103.08a76.54,76.54,0,0,1-5.12,22.41,3.74,3.74,0,0,1-2.08,2c-7.69,2.07-15.42,4-23.16,5.92a2.47,2.47,0,0,1-1.85-.72c-6.54-6.56-13.05-13.13-19.48-19.78a3.88,3.88,0,0,1-.91-2.88c1.26-8.12,2.69-16.22,4-24.33a3.48,3.48,0,0,1,2.39-3,68.53,68.53,0,0,1,22.43-4.84,5.06,5.06,0,0,1,3,1A102.49,102.49,0,0,1,172.88,98C173.88,99.27,173.83,101.36,174.26,103.08Z" transform="translate(-45 -45)"/><path class="cls-2" d="M74,98.7c.4.94.66,1.54.93,2.13,2.81,6.4,5.64,12.78,8.41,19.2a2.88,2.88,0,0,1,.11,2,82.6,82.6,0,0,0-5.06,24.07c-.16,2.1-.9,2.94-3,3.19-3.47.42-6.91,1.15-10.39,1.57a3.2,3.2,0,0,1-2.43-.85c-1.92-2.15-4-4.27-5.33-6.78a24.91,24.91,0,0,1-2.05-7.78,67.93,67.93,0,0,1,2-29.22,4.73,4.73,0,0,1,2.42-2.76C64.3,101.76,69.07,100.32,74,98.7Z" transform="translate(-45 -45)"/><path class="cls-2" d="M157.83,180.39c-1.8,3.43-3.54,6.9-5.46,10.28a4.28,4.28,0,0,1-2.18,1.36,68.74,68.74,0,0,1-33.94,3.79c-1.9-.26-3.69-1.48-5.48-2.35-2.14-1-4.2-2.26-6.36-3.27a1.85,1.85,0,0,1-1.16-2.45c.74-3.45,1.46-6.91,2.07-10.38a1.86,1.86,0,0,1,2.06-1.78c8.85-.52,17.52-2,25.76-5.35a2.06,2.06,0,0,1,1.63.14,73.2,73.2,0,0,0,22.17,9.31C157.07,179.72,157.17,179.87,157.83,180.39Z" transform="translate(-45 -45)"/><path class="cls-2" d="M125.48,53.93a89.7,89.7,0,0,1,23.79,4.54c1.5.53,2.24,1.33,2.24,2.83,0,3.37,0,6.73,0,10.09,0,1.51-.79,1.93-2.24,2a69.83,69.83,0,0,0-24.48,5.8,2.65,2.65,0,0,1-1.86,0c-6.85-2.49-13.66-5.11-20.55-7.5-1.65-.58-2.32-1.38-2.27-3,0-.3,0-.59,0-.88-.09-8.51.67-9.7,9-11.46C114.53,55.26,120,54.73,125.48,53.93Z" transform="translate(-45 -45)"/><path class="cls-2" d="M183.17,150.16c-2.51-6-4.58-12-7.51-17.61a11,11,0,0,1-.73-10,57.28,57.28,0,0,0,3.46-19.68c0-1.84.74-2.46,2.4-2.63,3-.29,5.93-.62,8.89-1a2,2,0,0,1,2.47,1.6,70.71,70.71,0,0,1,1.36,44.83,3.06,3.06,0,0,1-1.57,1.85C189,148.56,186,149.35,183.17,150.16Z" transform="translate(-45 -45)"/><path class="cls-2" d="M95.73,60.91c0,3.28.07,6.27,0,9.26a2.67,2.67,0,0,1-1.16,1.65A79.91,79.91,0,0,0,74.3,92.48c-.31.47-.71,1-1.2,1.21C68.9,95.12,64.68,96.46,60,98,67.44,81.07,79.2,68.85,95.73,60.91Z" transform="translate(-45 -45)"/><path class="cls-2" d="M159.55,187.81c1.09-3.07,1.89-5.51,2.84-7.89a5.47,5.47,0,0,1,1.49-1.85c7-6.35,13.25-13.31,17.91-21.56.25-.43.57-1,1-1.13a66.11,66.11,0,0,1,8-2.67C184.54,167.87,174.31,179.41,159.55,187.81Z" transform="translate(-45 -45)"/><path d="M199.43,110.52a73.4,73.4,0,0,0-2.26-9c-.61-1.31-1.26-2.57-1.93-3.76a1.3,1.3,0,0,1,0-1.48q-.41-1-.84-2a75.22,75.22,0,0,0-23.35-29.52c-.83-.63-1.67-1.25-2.53-1.84l-4.89.32-5.56,1.16-5.56,1.86-.19.11a6.93,6.93,0,0,1-3.44.64,17.75,17.75,0,0,0-2.67.21c-.84.15-1.69.25-2.58.36l-1.31.17L136.83,69l-.12,0c-2.1.73-4.48,1.72-6.06,4.23a5.06,5.06,0,0,1-.79.67c-.3.23-.62.48-.94.76-.13.12-.25.24-.37.37a5.72,5.72,0,0,0-.88,1.22,4.16,4.16,0,0,0,.07,4.09l.07.13.09.12A3.89,3.89,0,0,0,130,82a5.57,5.57,0,0,0-.45,2.92c0,.23,0,.41,0,.55a1.86,1.86,0,0,1,0,.22c-.12,0-.28.08-.52.13a5.76,5.76,0,0,0-2.58,1.45,4.22,4.22,0,0,1-.64.49l-.09,0-.11.08a3,3,0,0,1-.44.1c-.2,0-.4.08-.6.14l-.76.2-.42.67a1.28,1.28,0,0,1-1.29.67l-.44,0-.3,0-.61.1c-.33.06-.66.11-1,.2a2.48,2.48,0,0,0-2.34,2.58,3,3,0,0,0,2,2.92l.36.11-1.27-.08c-.65,0-1.31-.1-2-.11h-1.4l-.49,1.31a8.47,8.47,0,0,0-.44,2.85,8.27,8.27,0,0,1-.05,1l0,.15.14,4.33,1,.55a7.36,7.36,0,0,0,2.38.8,7.12,7.12,0,0,0-2.87,2.56l-1.38,1.78-.09.22a2.71,2.71,0,0,1-1.16,1.3,8.36,8.36,0,0,0-2.7,2.58l-.14.21-.45,1.24-.87,5.57a38.77,38.77,0,0,0-.15,5.6v.51l.18.3v.12a5.53,5.53,0,0,0,0,.71c.23,1.6.64,4.57,3.67,6.11a5.42,5.42,0,0,1,1.59,1.35,11.16,11.16,0,0,0,8,4.07l.52,0a8.66,8.66,0,0,0,3.76-.89,5.13,5.13,0,0,1,2.24-.51,7,7,0,0,1,2.28.42l.23.07,0,.07.24.28a8.07,8.07,0,0,1,1.66,3.73l0,.09,0,.1a20,20,0,0,0,2.92,5.91l.11.13a.32.32,0,0,1,.07.11.85.85,0,0,1-.11.37c-.29.6-.59,1.2-.9,1.79l-.48.95,0,.14a10.53,10.53,0,0,0,.26,6.5l0,.13,1.5,3.46,1.84,2.23.07.06a4.22,4.22,0,0,1,1.25,1.72,2.86,2.86,0,0,0,2.7,2.31l.3.32h.92a16.48,16.48,0,0,0,4.49-.79q.62-.18,1.23-.33l.11,0,.11,0a6.2,6.2,0,0,0,3-2.72l.38-.55.07-.16a7.25,7.25,0,0,1,2.31-3.08l.07-.05,1.74-1.48,1.78-1.69,1.76-1.67.64-.75,1.36-1.58.08-.14a5.89,5.89,0,0,0,.66-1.52h0a10.37,10.37,0,0,0,.24-3.57c0-.34,0-.68,0-1h0v-.43l0-.21c-.45-2.11-.31-2.43.54-3a17.24,17.24,0,0,0,2.87-2.44,17.15,17.15,0,0,1,1.89-1.7,9.28,9.28,0,0,0,2.93-4.55l.1-.27c.25-.67.52-1.34.79-2l.4-1,.09-.34a6.8,6.8,0,0,0,.18-.75l0-.09a2.63,2.63,0,0,0-.39-3.16l-.21-.19a11.61,11.61,0,0,1,3.34-2.18l.06,0,3-1.34a4,4,0,0,0,2.47-2.68l.09-.37,0-.38a5.86,5.86,0,0,0-.47-1.66,24.08,24.08,0,0,1,3.1,3.12l.46.59c.58.71.67,1.63.76,3.08l0,.67,0,.35c.22,1.91.51,4.53,3.09,6.14l.26.17,2.39.6,1.85-.5.38-.86c.26-.58.47-1.15.66-1.7a6.5,6.5,0,0,1,1.58-2.9l.17-.14.24-.33a11.45,11.45,0,0,1,1.68-1.91l.31-.25.19-.35c.42-.78,1.22-1.17,2.49-1.75.28-.13.57-.25.84-.39A93.41,93.41,0,0,0,199.43,110.52Zm-28.16-5.9a1.92,1.92,0,0,1-.78.2l-.21,0a2,2,0,0,1,0-.29c-.11-1-.26-2-.41-2.9l-.22-1.47-.1-.24c-.6-1.39-.31-1.84.19-2.28,0,0,0,.09,0,.14a11.4,11.4,0,0,0,.08,3l.15.78.65.47c.59.42.71,1.06.84,2.49Zm-17.58,4H153l-.3.11a5.32,5.32,0,0,1-1.87.31,11.55,11.55,0,0,1-2.42-.3l-.1,0-5.39-.68-.33,0a6.27,6.27,0,0,0-2.48.61,4.35,4.35,0,0,1-.88.3l-.44.07a6.52,6.52,0,0,1-.89.09h-.2l-.13,0c0-.06-.08-.15-.14-.28a8.56,8.56,0,0,1-.65-2.81l.43.28,1-.41a6.28,6.28,0,0,0,2-1.42h.14a3,3,0,0,0,1.12-.19l.17.19a4.61,4.61,0,0,0,3.45,1.73A3.91,3.91,0,0,0,148,104.6q.12.44.24.9l.27,1,.33,1.2,1.22.23a6.33,6.33,0,0,0,1.33.11h.36a2.39,2.39,0,0,1,.67.06l.57.22.51,0a6,6,0,0,1,.85.1l.53.07-.68.09A4.93,4.93,0,0,1,153.69,108.61Zm-25.31-8.85a5.22,5.22,0,0,0,.88.07,6.06,6.06,0,0,0,3.25-1,3.37,3.37,0,0,1,1.23.83l.14.12a1.82,1.82,0,0,1,.69,1.16l0,.37.19.34a3.07,3.07,0,0,1,0,.59c0,.2,0,.41,0,.61s0,.29,0,.48a4.06,4.06,0,0,0-1.75-.36l-.54,0h-.67l-.21,0a30.42,30.42,0,0,1-5,.47h-.15l-.44.06a6,6,0,0,0,.31-.72,11.86,11.86,0,0,1,1.6-2.64Zm31.39-.47-1,0a24,24,0,0,1-5.07-.51l-.23,0h-.21c-.39,0-.83,0-1.3,0a4,4,0,0,1,.39-1.6,1.75,1.75,0,0,1,.15-.25,5.19,5.19,0,0,1,1.24-.15A8.37,8.37,0,0,1,158,98.16l.12.07.14.06C159.28,98.71,159.63,99,159.77,99.29ZM143.41,79.48l.11.08-.13.07A.77.77,0,0,1,143.41,79.48Z" transform="translate(-45 -45)"/><path class="cls-2" d="M173.43,104.69c-.14-1.6-.2-3.25-1.69-4.32-.32-1.65.23-3.31-.12-5-.3-.73-.75-1.1-1.22-1.1a1.39,1.39,0,0,0-1.06.64,7.82,7.82,0,0,1-.89,1.15c-1.57,1.33-1.51,2.92-.78,4.63.2,1.34.44,2.68.58,4s.6,2.1,1.79,2.1a5,5,0,0,0,.73-.06,3.16,3.16,0,0,0,1.91-.76C173.36,105.83,173.49,105.31,173.43,104.69Zm0,0c-.14-1.6-.2-3.25-1.69-4.32-.32-1.65.23-3.31-.12-5-.3-.73-.75-1.1-1.22-1.1a1.39,1.39,0,0,0-1.06.64,7.82,7.82,0,0,1-.89,1.15c-1.57,1.33-1.51,2.92-.78,4.63.2,1.34.44,2.68.58,4s.6,2.1,1.79,2.1a5,5,0,0,0,.73-.06,3.16,3.16,0,0,0,1.91-.76C173.36,105.83,173.49,105.31,173.43,104.69Zm0,0c-.14-1.6-.2-3.25-1.69-4.32-.32-1.65.23-3.31-.12-5-.3-.73-.75-1.1-1.22-1.1a1.39,1.39,0,0,0-1.06.64,7.82,7.82,0,0,1-.89,1.15c-1.57,1.33-1.51,2.92-.78,4.63.2,1.34.44,2.68.58,4s.6,2.1,1.79,2.1a5,5,0,0,0,.73-.06,3.16,3.16,0,0,0,1.91-.76C173.36,105.83,173.49,105.31,173.43,104.69Zm27.5,19.06a93.41,93.41,0,0,0-1.5-13.23,73.4,73.4,0,0,0-2.26-9q-.85-2.67-1.89-5.24-.41-1-.84-2a3.28,3.28,0,0,0-.94,4.4A61.49,61.49,0,0,1,198.35,110c1.14,3.68,1.09,7.55,2.11,11.25,0,.11.08.2.12.31a3.87,3.87,0,0,0-.51.36c-1.57.77-3.31,1.29-4.23,3a13.64,13.64,0,0,0-2.13,2.42c-1.63,1.39-1.94,3.48-2.76,5.3l-.43.12-1.57-.4c-1.88-1.18-2-3.13-2.2-5-.13-1.67-.1-3.39-1.26-4.79l-.42-.55a24.87,24.87,0,0,0-5.18-4.75,6.2,6.2,0,0,0-2.85-.57c-.82,0-1.65.08-2.47.1-.51-.16-1.13.07-1.54-.45-.94-.93-1.9-1.85-2.83-2.79a.94.94,0,0,0-.64-.35.64.64,0,0,0-.3.09c-.49.32,0,.63.14.88.54,1,1.14,1.89,1.71,2.83a1.57,1.57,0,0,0,1.65,1.34,3.08,3.08,0,0,0,.51,0c.43-.07.87-.07,1.3-.1a4.69,4.69,0,0,1,4.31,3.84,2,2,0,0,1-1.33,1.34l-3,1.31a14,14,0,0,0-4.06,2.63,3.09,3.09,0,0,0-1.29.77c-.93.37-1.87.72-2.8,1.11a2.36,2.36,0,0,1-.91.22,1.38,1.38,0,0,1-1.29-1,2.21,2.21,0,0,0-.49-1.09l-2.2-5.29a12.1,12.1,0,0,0-2.81-5.4l0,0a3.33,3.33,0,0,0-1.12-1.58,2.15,2.15,0,0,0-.12,1.62,5.42,5.42,0,0,0,1,3.19,6.6,6.6,0,0,0,1,2.15l2.58,5.68a12.21,12.21,0,0,1-.14,3.52c-.21,1.5-.13,1.69,1.23,1.69h.33a4.34,4.34,0,0,0,.52-.07c1.83-.65,3.85-.86,5.32-2.34h0c.36,0,.75-.31,1.09-.31a.48.48,0,0,1,.35.15c.42.42-.12,1-.19,1.45a6.87,6.87,0,0,1-.21.87c-.38,1-.78,2-1.15,2.93-.55,1.45-1.06,3-2.34,3.92-1.68,1.23-2.93,3-4.65,4.07-2.14,1.35-1.84,3.13-1.43,5.06a22.84,22.84,0,0,1,0,3.79,4.32,4.32,0,0,1-.56,1.52l-1.49,1.74-.34.39L155,159.31l-1.67,1.42a9.28,9.28,0,0,0-3,3.87c-.64.93-1.18,2-2.33,2.39a22,22,0,0,1-5.25,1.07h-.06c-.53-.55-1.67,0-1.91-1.06a5.7,5.7,0,0,0-1.78-2.69l-1.61-1.95c-.44-1-.89-2-1.34-3.07a8.72,8.72,0,0,1-.28-5.32c.44-.89.91-1.77,1.34-2.66a2.26,2.26,0,0,0-.27-2.66,18.46,18.46,0,0,1-2.63-5.34,10.13,10.13,0,0,0-2.11-4.61,1.45,1.45,0,0,0-1.36-1,8.94,8.94,0,0,0-2.93-.53,7.1,7.1,0,0,0-3.09.7,6.73,6.73,0,0,1-2.91.7h-.39a9.19,9.19,0,0,1-6.62-3.36,7.44,7.44,0,0,0-2.21-1.86c-1.94-1-2.34-2.72-2.59-4.59a3.66,3.66,0,0,0-.22-1.43,37.68,37.68,0,0,1,.13-5.31l.84-5.3c.09-.27.19-.54.29-.82a6.53,6.53,0,0,1,2.06-2,4.67,4.67,0,0,0,2-2.21l1.28-1.66a5.18,5.18,0,0,1,3.59-2.4c.73-.15,1.65,0,2.15-.41a8.47,8.47,0,0,1,4.64-1.7,31.62,31.62,0,0,0,5.32-.5h.18c.3,0,.6,0,.9,0a1.44,1.44,0,0,1,1.59,1.06,10.94,10.94,0,0,0,.83,3.56c.35.77.8,1.45,1.78,1.45h0l.47,0a12.07,12.07,0,0,0,1.59-.17c1.08-.15,2-.9,3.1-.9h.14l5.27.66a13,13,0,0,0,2.83.35,7.35,7.35,0,0,0,2.55-.43,11.73,11.73,0,0,0,1.19,0c3.23-.45,3-.21,2.57-3.35a1.09,1.09,0,0,1,0-.26c0-.33-.15-.48-.42-.48a.62.62,0,0,0-.18,0,3.34,3.34,0,0,1-.62.06c-.77,0-1.53-.24-2.29-.24h-.23a3.52,3.52,0,0,0-1.53-.25h-.36a5,5,0,0,1-1-.07c-.31-1.13-.56-2.28-.95-3.38a1.3,1.3,0,0,1,.34-1.62,18.63,18.63,0,0,1,3.42-.26h0a25.39,25.39,0,0,0,5.49.56c.59,0,1.19,0,1.78,0a1.13,1.13,0,0,0,1-.52c.43-.39.3-.9.24-1.36-.21-1.71-1.49-2.39-2.88-2.95a10.39,10.39,0,0,0-5.17-1.66A7.29,7.29,0,0,0,152,95a2.06,2.06,0,0,0-1.33,1.2,6.26,6.26,0,0,0-.64,2.7c0,.93-.4,1.31-1.24,1.31h-.21a1,1,0,0,0-1.09,1,4.64,4.64,0,0,1-.43,1.25c-.5,1.12-1.23,1.7-2,1.7a2.73,2.73,0,0,1-2-1.07,6.08,6.08,0,0,1-.16-2.36c.27-2.13-2.73-5-5-5a2.27,2.27,0,0,0-.59.07c-.7.19-.39.49-.11.83,1.1,1.37,2.51,2.49,3.37,4.06.29.8.77,1.7-.34,1.7a3.67,3.67,0,0,1-.6-.06h-.09c-.33,0-.53.33-.75.55a4.65,4.65,0,0,1-1.44,1.09,1.38,1.38,0,0,1-.52-1.24,4.64,4.64,0,0,0-.28-2,3.82,3.82,0,0,0-1.39-2.46,4.35,4.35,0,0,0-2.68-1.42,2.9,2.9,0,0,0-.75.11,4.32,4.32,0,0,1-2.48.87,4.44,4.44,0,0,1-.62,0l-.31,0a2,2,0,0,0-1.64.92,15.24,15.24,0,0,0-2.11,3.5,3.13,3.13,0,0,1-3.15,2.32c-1.77-.12-3.59.19-5.25-.72l-.09-3a13.82,13.82,0,0,1,.37-3.39c1.29,0,2.57.2,3.86.2a9.94,9.94,0,0,0,1.09-.05,2.44,2.44,0,0,0,.71.13c1,0,.94-1.17,1.1-2,.22-1-.54-1.47-1.43-1.68-.59-.15-1.2-.27-1.78-.46a1,1,0,0,1-.62-1.08c0-.56.51-.5.87-.59s.78-.14,1.17-.21a5.27,5.27,0,0,0,.68,0,3.29,3.29,0,0,0,3-1.61,4.76,4.76,0,0,0,1.64-.52c1-.49,1.54-1.49,2.74-1.75,2-.44,2.21-1,2-3a3.39,3.39,0,0,1,.53-2.34A1.6,1.6,0,0,1,133,82c.36,0,.67.26,1,.84.57,1.07,1.19,2.19,2.44,2.19a3,3,0,0,0,1-.19,3.6,3.6,0,0,0,1,.11c.68,0,1.37-.12,2-.12H141c1.26,0,1.79-.72,2-1.91.41-1.21,1.46-1.63,2.52-2.08.64-.27,1.51-.37,1.47-1.4.31-.94-.22-1.25-1-1.37-.58-.08-1.47.08-1.62-.55s-.55-.87-1-.87c-.22,0-.46,0-.7,0-1.52.4-1.06,1.73-1.27,2.74-.81,2.44-1.43,2.91-4,3.06-2.27-.54-1.29-2.56-1.71-4.12a4.12,4.12,0,0,1-3.59,1.91,10.19,10.19,0,0,1-1.25-.11,1.92,1.92,0,0,1-1.31-.75,2.34,2.34,0,0,1,.52-3,2.76,2.76,0,0,1,.3-.29,11.65,11.65,0,0,0,2-1.81c1.23-1.95,3-2.73,5-3.42l5.33-1.12c1.3-.17,2.6-.3,3.9-.53,2.26-.4,4.68.18,6.8-1.11l5.23-1.75,5.31-1.1,7.15-.47c-.83-.63-1.67-1.25-2.53-1.84s-1.81-1.24-2.74-1.82l-2.14.14h-.28l-.27.06-3.47.72-1.84.38-.23.05-.22.08-2.1.7-3.14,1-.42.14-.39.23a6,6,0,0,1-2.46.35,19,19,0,0,0-3,.24c-.79.14-1.61.24-2.48.35l-1.25.16-.15,0-.15,0-4,.84-1.33.28-.25.05-.24.09a12.75,12.75,0,0,0-7,4.88l-.42.32c-.2.16-.43.33-.67.53a9.55,9.55,0,0,0-.89.83,8,8,0,0,0-.75.93,6.35,6.35,0,0,0-1,2.23,6.16,6.16,0,0,0,.64,4.46l.14.26,0,.06.13.18a6,6,0,0,0,1.27,1.25l-.06.48c0,.23,0,.47,0,.71a8.58,8.58,0,0,0-2.32,1.52l-.31.26h-.06l-.72.16-1.52.41-.66,1-.58-.06-.58.1-.12,0-.17,0c-.29,0-.64.1-1,.19a4.48,4.48,0,0,0-4,4.61,4.92,4.92,0,0,0,.07.78H113.7l-1,2.62a10.53,10.53,0,0,0-.56,3.5c0,.31,0,.6,0,.8l0,.31v.31l.09,3,.08,2.27,1.4.78a8.85,8.85,0,0,0-.57.76l-.42.56-.76,1-.3.39-.2.45a.66.66,0,0,1-.33.37,10.39,10.39,0,0,0-3.34,3.18l-.29.42-.17.49-.15.4-.15.41-.13.36,0,.38-.33,2-.51,3.25v.15a40.16,40.16,0,0,0-.16,5.89l0,1,.17.29c0,.16,0,.34,0,.54.26,1.82.78,5.6,4.75,7.61a3.48,3.48,0,0,1,1,.85,13.08,13.08,0,0,0,9.37,4.78h.06l.65,0a10.66,10.66,0,0,0,4.62-1.09,3.13,3.13,0,0,1,1.38-.31,4.63,4.63,0,0,1,1.31.21,6.27,6.27,0,0,1,1.18,2.78l0,.2.07.19a22.79,22.79,0,0,0,2.72,5.78l-.51,1-.42.83-.13.26-.09.26a12.45,12.45,0,0,0,.22,7.69l.08.27.11.25.82,1.9.52,1.17.22.52.36.43,1.6,1.94.12.14.13.13a8.6,8.6,0,0,1,.73.81,4.78,4.78,0,0,0,3.63,3.65l.45.47h1.78a18.42,18.42,0,0,0,5-.86l1.18-.32.22,0,.21-.08a8.12,8.12,0,0,0,4-3.49l.25-.36.21-.3.15-.33a5.36,5.36,0,0,1,1.64-2.27l.15-.11.14-.12,1.67-1.42.07-.07.08-.07.62-.59,1.73-1.65,1-1,.15-.14.13-.16L162,158l.21-.25,1-1.14.21-.25.17-.27a8.19,8.19,0,0,0,.69-1.44,11.28,11.28,0,0,0,.49-4.82c0-.13,0-.26,0-.39s0-.48,0-.68v-.45l-.1-.44c0-.19-.12-.58-.17-.89,0,0,0-.05,0-.07a19.83,19.83,0,0,0,3.05-2.61,15.71,15.71,0,0,1,1.67-1.51,11.11,11.11,0,0,0,3.61-5.46l.1-.26c.25-.66.51-1.31.77-2l.36-.92.1-.25.07-.26,0-.16c0-.18.12-.42.17-.7a4.76,4.76,0,0,0,.19-3.58,5.77,5.77,0,0,1,1.33-.74l.14,0,.13-.06.89-.39,2.07-.92a6.23,6.23,0,0,0,2.9-2.37l.28.35.06.08a5.1,5.1,0,0,1,.32,1.94c0,.2,0,.41,0,.61v.16l0,.35c.24,2,.62,5.48,4,7.61l.53.33.61.16.79.2.78.19,1,.26,1-.27.43-.12,1.83-.49.78-1.73c.29-.65.52-1.29.72-1.85a5.62,5.62,0,0,1,1-2.05l.33-.28.27-.35.12-.16a9.06,9.06,0,0,1,1.33-1.56l.62-.5.37-.7a5.22,5.22,0,0,1,1.56-.88l.08,0C201,125.2,201,124.48,200.93,123.75Z" transform="translate(-45 -45)"/><path d="M163.45,164.15c-1.28-.33-3.42-1.4-3.4-4.86a7.74,7.74,0,0,1,3.55-6.65c.29-.2.44-.91.57-1.61l0-.13a2.83,2.83,0,0,1,2.89-2.71h.22a3.23,3.23,0,0,1,3.13,3.23c.05.6.06,1.2.06,1.8l0,.85,0,.15a6.94,6.94,0,0,1-1.4,3.52,3.75,3.75,0,0,0-.73,1.81l0,.31-.34.72a5.66,5.66,0,0,1-3.46,3.54l-.54.16Z" transform="translate(-45 -45)"/><path class="cls-2" d="M172.51,153.88c0-.22,0-.44,0-.66,0-.59,0-1.26-.07-1.95a5.21,5.21,0,0,0-5-5.07h-.33a5.19,5.19,0,0,0-2.61.74,4.54,4.54,0,0,0-1.74,1.95h0a6.08,6.08,0,0,0-.52,1.67v.1c0,.11-.08.39-.13.6a11,11,0,0,0-1.34,1.18,9.26,9.26,0,0,0-2.05,3.26,10.16,10.16,0,0,0-.64,3.44v.12a8.37,8.37,0,0,0,.29,2.36,6.29,6.29,0,0,0,4.61,4.47l1.09.28,1.07-.33a7.58,7.58,0,0,0,4.7-4.62L170,161l.28-.57.08-.63a1.79,1.79,0,0,1,.33-.85,8.93,8.93,0,0,0,1.8-4.49l0-.3ZM164,162.22c-1.52-.4-1.91-1.53-1.9-2.92a7.38,7.38,0,0,1,.19-1.6,5.65,5.65,0,0,1,2-3.1l.43-.31a4.17,4.17,0,0,0,1.42-2.9c.1-.56.13-1.2,1-1.2h.1c.94.05,1.19.65,1.26,1.4s0,1.58.06,2.38a5,5,0,0,1-1,2.54,5.73,5.73,0,0,0-1.14,2.77C165.82,160.47,165.41,161.78,164,162.22Z" transform="translate(-45 -45)"/><path d="M122.6,86a7.26,7.26,0,0,1-1.61-.19l-.1,0-.1,0c-1-.35-4.18-1.41-3.83-5a3.11,3.11,0,0,0-.11-.4c-.07-.23-.14-.47-.19-.71a3.73,3.73,0,0,1,.6-3.36c.28-.33.44-.77.31-1.86a4.48,4.48,0,0,1,3.21-5.15,4.06,4.06,0,0,1,1.49-.29c.77,0,2.66.29,3.45,3a9.24,9.24,0,0,1,.29,1.38c0,.16,0,.32.08.47a3.52,3.52,0,0,0,1.66,2.59l.18.1.14.13a3,3,0,0,1,.76,3.29l-.12.43-.19.27a1.67,1.67,0,0,0,0,.83l.23,2.14-1.76,0A5,5,0,0,1,122.6,86Z" transform="translate(-45 -45)"/><path class="cls-2" d="M130.54,81.13l.18-.63,0-.09a2.27,2.27,0,0,0,.06-.25,5,5,0,0,0-.49-4,5.24,5.24,0,0,0-.92-1.08l-.3-.26-.18-.11-.16-.09c-.2-.12-.51-.3-.71-1.25L128,73s0-.06,0-.09a11.09,11.09,0,0,0-.34-1.55c-1.21-4.1-4.42-4.41-5.37-4.41a6.19,6.19,0,0,0-2.16.4,6.39,6.39,0,0,0-4.58,6.11,6.63,6.63,0,0,0,0,1.17,2.42,2.42,0,0,1,0,.48,5.32,5.32,0,0,0-.76,1.33s0,0,0,0A6.29,6.29,0,0,0,114.7,80c.08.35.17.64.24.88s0,.24,0,.36a6.28,6.28,0,0,0,.68,2.91h0a6,6,0,0,0,1.62,1.92,9.23,9.23,0,0,0,2.93,1.53l.2.07.2,0h0a9.43,9.43,0,0,0,2,.23A6.93,6.93,0,0,0,128,85.53l1.58,0,1.37,0-.44-4.22ZM119,80.81a5.67,5.67,0,0,0-.35-1.67,1.79,1.79,0,0,1,.19-1.65,3.43,3.43,0,0,0,.5-.8,4.83,4.83,0,0,0,.25-2.59,4,4,0,0,1,0-.84,2.41,2.41,0,0,1,1.91-2.19,2.27,2.27,0,0,1,.82-.17c.82,0,1.27.64,1.54,1.55.15.53.21,1.1.31,1.65a6.2,6.2,0,0,0,1.22,2.75,5.18,5.18,0,0,0,1.41,1.2c.47.41.25.89.12,1.36a3.09,3.09,0,0,0-.38,2.16.87.87,0,0,0-.32.06,1.62,1.62,0,0,0-.83.74A3,3,0,0,1,122.6,84a5.22,5.22,0,0,1-1.14-.14h0a4.82,4.82,0,0,1-1.79-.92A2.23,2.23,0,0,1,119,80.81Z" transform="translate(-45 -45)"/><path d="M115.86,84.19a3.11,3.11,0,0,1-2.45-1.42,3.07,3.07,0,0,1-.07-2.8,4.29,4.29,0,0,0,.1-.48c0-.16.06-.32.1-.48l0-.14a5.53,5.53,0,0,1,2.75-3.62l1.6-.81,1,1.5a6.41,6.41,0,0,1,.83,2.21c0,.18.08.36.13.53.4,1.39.78,2.7,0,3.88s-2.07,1.39-3.48,1.62l-.28,0Z" transform="translate(-45 -45)"/><path class="cls-2" d="M121.78,78.12c0-.13-.07-.27-.1-.4a8.15,8.15,0,0,0-1.1-2.86l-1-1.6-.91-1.41-1,.48-2.14,1.08-.1,0a7.46,7.46,0,0,0-3.76,4.82l0,.14,0,.15c0,.18-.08.37-.11.56a1.42,1.42,0,0,0,0,.2,5,5,0,0,0,.25,4.45,5.06,5.06,0,0,0,3.94,2.4l.56.06.55-.09.49-.08a8.57,8.57,0,0,0,2.52-.76,4.49,4.49,0,0,0,1.71-1.5l.13-.18C122.81,81.68,122.24,79.71,121.78,78.12Zm-5.68,4.09c-.93-.11-1.29-.55-.91-1.49a8.89,8.89,0,0,0,.3-1.26,4,4,0,0,1,1.12-2,2.81,2.81,0,0,1,.62-.42,8,8,0,0,1,.71,2.2c.61,2.09.63,2.48-.93,2.81Z" transform="translate(-45 -45)"/><path class="cls-3" d="M200.89,122.48c0-.13,0-.53-.18-.66s-.35,0-.55.08c-1.6.79-3.39,1.31-4.32,3a13.64,13.64,0,0,0-2.13,2.42c-1.63,1.39-1.94,3.48-2.76,5.3l-.43.12-1.57-.4c-1.88-1.18-2-3.13-2.2-5-.13-1.67-.1-3.39-1.26-4.79l-.42-.55a24.87,24.87,0,0,0-5.18-4.75c-1.71-.85-3.53-.51-5.32-.47-.51-.16-1.13.07-1.54-.45-.94-.93-1.9-1.85-2.83-2.79-.28-.29-.6-.47-.94-.26s0,.63.14.88c.54,1,1.14,1.89,1.71,2.83a1.67,1.67,0,0,0,2.16,1.3c.43-.07.87-.07,1.3-.1a4.69,4.69,0,0,1,4.31,3.84,2,2,0,0,1-1.33,1.34l-3,1.31a14,14,0,0,0-4.06,2.63,3.09,3.09,0,0,0-1.29.77c-.93.37-1.87.72-2.8,1.11a1.46,1.46,0,0,1-2.2-.78,2.21,2.21,0,0,0-.49-1.09l-2.2-5.29a12.1,12.1,0,0,0-2.81-5.4l0,0a3.33,3.33,0,0,0-1.12-1.58,2.15,2.15,0,0,0-.12,1.62,5.42,5.42,0,0,0,1,3.19,6.6,6.6,0,0,0,1,2.15l2.58,5.68a12.21,12.21,0,0,1-.14,3.52c-.22,1.62-.12,1.71,1.56,1.69a4.34,4.34,0,0,0,.52-.07c1.83-.65,3.85-.86,5.32-2.34.5,0,1-.57,1.45-.16s-.12,1-.19,1.45a6.87,6.87,0,0,1-.21.87c-.38,1-.78,2-1.15,2.93-.55,1.45-1.06,3-2.34,3.92-1.68,1.23-2.93,3-4.65,4.07-2.14,1.35-1.84,3.13-1.43,5.06,0,1.79.46,3.63-.56,5.31l-1.83,2.13L155,159.31l-1.67,1.42a9.28,9.28,0,0,0-3,3.87c-.64.93-1.18,2-2.33,2.39a21,21,0,0,1-5.31,1.07c-.53-.55-1.67,0-1.91-1.06a5.7,5.7,0,0,0-1.78-2.69l-1.61-1.95c-.44-1-.89-2-1.34-3.07a8.72,8.72,0,0,1-.28-5.32c.44-.89.91-1.77,1.34-2.66a2.26,2.26,0,0,0-.27-2.66,18.46,18.46,0,0,1-2.63-5.34,10.13,10.13,0,0,0-2.11-4.61,1.45,1.45,0,0,0-1.36-1,7.76,7.76,0,0,0-6,.17,6.6,6.6,0,0,1-3.3.69,9.19,9.19,0,0,1-6.62-3.36,7.44,7.44,0,0,0-2.21-1.86c-1.94-1-2.34-2.72-2.59-4.59a3.66,3.66,0,0,0-.22-1.43,37.68,37.68,0,0,1,.13-5.31l.84-5.3.29-.82a6.53,6.53,0,0,1,2.06-2,4.67,4.67,0,0,0,2-2.21l1.28-1.66a5.18,5.18,0,0,1,3.59-2.4c.73-.15,1.65,0,2.15-.41a8.47,8.47,0,0,1,4.64-1.7,31.62,31.62,0,0,0,5.32-.5c1,0,2.19-.37,2.67,1a10.94,10.94,0,0,0,.83,3.56c.35.78.81,1.47,1.82,1.45a7.51,7.51,0,0,0,2.06-.14c1.13-.16,2.07-1,3.24-.89l5.27.66a9.47,9.47,0,0,0,5.38-.08,11.73,11.73,0,0,0,1.19,0c3.23-.45,3-.21,2.57-3.35a1.09,1.09,0,0,1,0-.26c0-.39-.21-.54-.6-.46-1.06.21-2.09-.24-3.14-.17-.91-.43-1.9-.14-2.84-.32-.31-1.13-.56-2.28-.95-3.38a1.3,1.3,0,0,1,.34-1.62,19,19,0,0,1,3.45-.26,27.28,27.28,0,0,0,7.27.51,1.13,1.13,0,0,0,1-.52c.43-.39.3-.9.24-1.36-.21-1.71-1.49-2.39-2.88-2.95-2.17-1.25-4.43-2.09-7-1.42a2.06,2.06,0,0,0-1.33,1.2,6.26,6.26,0,0,0-.64,2.7c0,1-.43,1.34-1.36,1.31a1,1,0,0,0-1.18,1,4.64,4.64,0,0,1-.43,1.25c-.89,2-2.53,2.26-4,.63a6.08,6.08,0,0,1-.16-2.36c.29-2.32-3.3-5.48-5.54-4.89-.7.19-.39.49-.11.83,1.1,1.37,2.51,2.49,3.37,4.06.33.92.92,2-.94,1.64-.39-.07-.6.3-.84.54a4.65,4.65,0,0,1-1.44,1.09,1.38,1.38,0,0,1-.52-1.24,4.64,4.64,0,0,0-.28-2,3.82,3.82,0,0,0-1.39-2.46c-1-.82-2-1.75-3.43-1.31a4.09,4.09,0,0,1-3.1.82,2,2,0,0,0-1.95.89,15.24,15.24,0,0,0-2.11,3.5,3.13,3.13,0,0,1-3.15,2.32c-1.77-.12-3.59.19-5.25-.72l-.09-3a13.82,13.82,0,0,1,.37-3.39,43.08,43.08,0,0,0,5,.15c1.79.58,1.62-.89,1.81-1.83s-.54-1.47-1.43-1.68c-.59-.15-1.2-.27-1.78-.46a1,1,0,0,1-.62-1.08c0-.56.51-.5.87-.59s.78-.14,1.17-.21a3.47,3.47,0,0,0,3.67-1.57,4.76,4.76,0,0,0,1.64-.52c1-.49,1.54-1.49,2.74-1.75,2-.44,2.21-1,2-3a3.39,3.39,0,0,1,.53-2.34c.8-.65,1.37-.63,1.91.4.7,1.32,1.47,2.71,3.42,2,1.12.3,2.25-.08,3.36,0,1.46.11,2.05-.63,2.28-1.9.41-1.21,1.46-1.63,2.52-2.08.64-.27,1.51-.37,1.47-1.4.31-.94-.22-1.25-1-1.37-.58-.08-1.47.08-1.62-.55-.26-1.13-1-.84-1.68-.84-1.52.4-1.06,1.73-1.27,2.74-.81,2.44-1.43,2.91-4,3.06-2.27-.54-1.29-2.56-1.71-4.12a4.12,4.12,0,0,1-3.59,1.91c-.92-.07-1.9,0-2.56-.86a2.34,2.34,0,0,1,.52-3c.73-.79,1.82-1.31,2.32-2.1,1.23-1.95,3-2.73,5-3.42l5.33-1.12c1.3-.17,2.6-.3,3.9-.53,2.26-.4,4.68.18,6.8-1.11l5.23-1.75,5.31-1.1,7.23-.47a72.29,72.29,0,0,1,10.2,9.06,72.38,72.38,0,0,1,19.52,48.6Zm-33.22-21.75c.2,1.34.44,2.68.58,4,.19,1.76.77,2.29,2.52,2a3.16,3.16,0,0,0,1.91-.76c.68-.21.81-.73.75-1.35-.14-1.6-.2-3.25-1.69-4.32-.32-1.65.23-3.31-.12-5-.53-1.27-1.5-1.47-2.28-.46a7.82,7.82,0,0,1-.89,1.15C166.88,97.43,166.94,99,167.67,100.73Z" transform="translate(-45 -45)"/><path class="cls-3" d="M162.05,159.3a5.77,5.77,0,0,1,2.67-5,4.17,4.17,0,0,0,1.42-2.9c.11-.58.13-1.25,1.05-1.19s1.19.65,1.26,1.4,0,1.58.06,2.38a5,5,0,0,1-1,2.54,5.73,5.73,0,0,0-1.14,2.77c-.57,1.18-1,2.49-2.44,2.93C162.43,161.82,162,160.69,162.05,159.3Z" transform="translate(-45 -45)"/><path class="cls-3" d="M126.87,79.41a3.09,3.09,0,0,0-.38,2.16,1.44,1.44,0,0,0-1.15.8,3.26,3.26,0,0,1-3.91,1.44c-1.44-.48-2.68-1.1-2.47-3a5.67,5.67,0,0,0-.35-1.67,1.79,1.79,0,0,1,.19-1.65,4.17,4.17,0,0,0,.75-3.39,2.52,2.52,0,0,1,1.9-3c1.36-.53,2,.2,2.36,1.38.15.53.21,1.1.31,1.65a5.57,5.57,0,0,0,2.63,4C127.22,78.46,127,78.94,126.87,79.41Z" transform="translate(-45 -45)"/><path class="cls-3" d="M116.1,82.21c-.93-.11-1.29-.55-.91-1.49a8.89,8.89,0,0,0,.3-1.26A3.52,3.52,0,0,1,117.23,77a8,8,0,0,1,.71,2.2C118.65,81.68,118.56,81.8,116.1,82.21Z" transform="translate(-45 -45)"/><text class="cls-4" transform="translate(155.9 146.12)"><tspan class="cls-5">n</tspan><tspan class="cls-6" x="46.07" y="0">T</tspan><tspan x="92.73" y="0">ou</tspan><tspan class="cls-7" x="202.03" y="0">r</tspan><tspan class="cls-8" x="231.32" y="0">.</tspan></text></svg>