<svg id="Calque_1" data-name="Calque 1" xmlns="http://www.w3.org/2000/svg" viewBox="0 0 576.22 575.22"><title>loupe</title><path d="M278.66,549.18l-30.6,30.6L42.94,784.9a21.5,21.5,0,0,1-30.41-30.41L217.76,549.26l30.62-30.61A162.72,162.72,0,0,0,278.66,549.18Z" transform="translate(-6.24 -215.98)"/><path d="M377.49,216c-113,0-205,91.94-205,205a204,204,0,0,0,45.24,128.31,207.17,207.17,0,0,0,30.3,30.52,204,204,0,0,0,129.43,46.14c113,0,205-91.95,205-205S490.51,216,377.49,216Zm0,366.94a161.09,161.09,0,0,1-98.83-33.74,162.72,162.72,0,0,1-30.28-30.53A161.09,161.09,0,0,1,215.52,421c0-89.32,72.66-162,162-162s162,72.65,162,162S466.8,582.92,377.49,582.92Z" transform="translate(-6.24 -215.98)"/></svg>